<svg version="1.1" id="Layer_1" xmlns="http://www.w3.org/2000/svg" xmlns:xlink="http://www.w3.org/1999/xlink" x="0px" y="0px"
	 width="100%" viewBox="0 0 1024 1024" enable-background="new 0 0 1024 1024" xml:space="preserve">
<path fill="#000000" opacity="1.000000" stroke="none" 
	d="
M438.000153,610.270508 
	C409.172516,610.316162 380.843750,610.230835 352.518066,610.487427 
	C344.353821,610.561401 336.207153,611.455383 328.348053,608.437378 
	C310.800903,601.698853 301.112091,584.228821 304.602783,565.525574 
	C304.920013,563.825867 304.262390,561.846863 306.635773,559.619202 
	C306.835388,565.406250 307.917114,570.137939 312.115845,573.757263 
	C320.115662,580.653076 329.348694,582.923340 339.518372,581.675720 
	C344.289612,581.090332 347.622375,576.663879 347.712463,570.546448 
	C347.795898,564.879822 349.188568,559.953064 351.819641,554.907166 
	C354.919708,548.961914 354.734589,541.970154 355.817474,535.423340 
	C358.933441,516.585449 364.853210,498.615051 371.879456,480.947937 
	C374.950531,473.225861 376.805389,465.103485 380.246094,457.456970 
	C383.868835,449.405975 389.312897,443.160065 396.177765,438.019165 
	C403.288940,432.693848 410.696381,434.579041 417.895508,437.972839 
	C433.268097,445.219727 439.116486,458.628448 439.715515,474.406250 
	C440.091980,484.323303 445.063416,491.700287 449.975403,499.353363 
	C451.731842,502.089935 454.935089,503.218811 457.999573,504.135681 
	C471.544037,508.188446 484.966553,512.645447 499.206604,513.924561 
	C507.019226,514.626282 512.509033,518.960754 514.608276,526.747925 
	C515.440186,529.834229 517.352783,531.173096 520.030457,532.630432 
	C532.420654,539.373779 546.525513,542.847290 557.434692,552.468689 
	C560.117371,554.834717 563.509155,556.407959 567.154053,557.405151 
	C573.210144,559.061951 576.886780,563.783325 579.641052,568.980042 
	C583.162903,575.625305 591.103760,576.913513 596.271423,571.136597 
	C607.750061,558.304626 618.957947,545.206787 628.266663,530.704651 
	C631.821350,525.166870 633.784912,518.639465 637.831421,513.249451 
	C642.080872,507.589111 647.415222,505.894836 653.396423,509.702179 
	C663.053589,515.849426 673.013000,521.683228 681.566956,529.346497 
	C687.963989,535.077393 691.141296,542.337402 689.199524,551.316345 
	C687.722412,558.146240 686.672302,565.050415 686.825562,572.117004 
	C686.925415,576.720093 688.982727,579.101624 693.364563,580.150757 
	C701.384766,582.071045 706.578125,580.657654 709.729797,575.356079 
	C712.740173,570.291870 711.877502,559.722839 708.146057,555.423035 
	C705.585510,552.472473 701.288635,552.926392 698.507080,550.426331 
	C698.022888,549.991211 697.470215,549.632263 696.925110,549.219971 
	C697.375244,546.438538 699.617310,546.128784 701.464600,546.231262 
	C706.836853,546.529297 711.024414,545.281799 712.635437,539.481873 
	C712.726501,539.153992 713.435486,538.997681 713.822876,538.780579 
	C716.115845,539.237915 716.087158,541.129211 716.271423,542.697388 
	C717.512390,553.261047 719.388184,563.812866 719.702637,574.408813 
	C720.258667,593.147034 702.741699,611.254028 683.929016,611.226440 
	C633.945679,611.153259 583.961365,611.453247 533.977173,610.543579 
	C502.160370,609.964539 470.326447,610.328430 438.000153,610.270508 
z"/>
<path fill="#000000" opacity="1.000000" stroke="none" 
	d="
M454.229675,320.248230 
	C458.510773,342.748840 437.944031,356.816010 420.190186,351.276855 
	C402.183105,345.658661 396.127594,325.022675 407.910614,310.104279 
	C408.825165,308.946381 409.810852,307.844696 410.713501,306.776062 
	C406.789154,300.148743 402.872925,299.373749 398.172485,304.514404 
	C392.968842,310.205383 385.881714,313.659882 380.874176,319.548645 
	C378.613312,322.207397 376.104065,324.654785 373.839111,327.310303 
	C369.662872,332.206818 364.951294,335.815094 357.989838,335.106964 
	C356.561737,334.961700 354.707672,335.045990 353.654266,335.833130 
	C347.841003,340.177216 341.746216,344.311676 336.699951,349.452545 
	C333.650726,352.558960 330.746063,356.066254 328.056274,359.943909 
	C326.244995,358.386078 326.700775,356.422791 326.827271,354.799286 
	C328.414581,334.421783 330.325745,314.053497 333.446564,293.867584 
	C335.522644,280.439331 344.920593,272.949402 358.525970,272.779419 
	C374.680847,272.577637 390.848541,272.787811 406.998932,273.239777 
	C411.481873,273.365234 412.856628,272.040436 412.928894,267.731110 
	C413.411438,238.955643 424.034241,214.387329 445.280640,195.069397 
	C469.684540,172.880600 498.714691,165.407333 530.987488,171.579605 
	C567.710205,178.602936 592.531311,200.207504 605.657837,235.026352 
	C609.652344,245.621933 611.369019,256.898315 611.231140,268.289764 
	C611.181702,272.374329 612.412903,273.857330 616.620789,273.735748 
	C632.930725,273.264557 649.255188,274.199890 665.570190,273.061523 
	C678.638245,272.149689 689.005859,281.044891 690.311829,293.907013 
	C693.028748,320.665527 695.613159,347.437775 698.425720,374.186127 
	C701.237854,400.929871 704.262878,427.651215 707.187073,454.383179 
	C707.259399,455.043762 707.325073,455.722656 707.254822,456.378143 
	C706.945068,459.269135 708.501831,463.305206 705.605957,464.693878 
	C702.884338,465.998962 699.589844,463.542877 697.074341,461.833252 
	C692.899658,458.995941 690.764709,454.629150 689.802002,449.729736 
	C687.575806,438.399597 687.977417,426.847504 687.007629,415.410248 
	C686.668884,411.415283 686.685608,407.312988 685.306885,403.577637 
	C679.797974,388.652496 681.572998,373.516235 684.786438,358.710846 
	C687.177795,347.693451 685.154541,338.675659 677.875122,330.516174 
	C674.851807,327.127380 672.300598,323.393066 670.383057,319.341827 
	C663.528503,304.860413 651.475159,302.064850 636.675842,304.934723 
	C625.114136,307.176758 621.350891,309.613129 622.211670,323.841705 
	C622.912048,335.419037 616.599915,345.232819 606.506531,349.272858 
	C595.046326,353.860016 583.185791,351.458832 575.561340,342.486572 
	C568.813599,334.546112 568.028748,325.451660 571.480408,315.764038 
	C573.891113,308.997955 570.558350,304.760590 563.225342,304.991699 
	C562.727356,305.007385 562.209412,305.011780 561.737427,305.148193 
	C542.235413,310.784363 523.032776,306.439178 504.117432,302.418976 
	C493.164490,300.091095 482.757263,295.065948 472.229004,290.937103 
	C468.314240,289.401855 464.345276,288.222382 460.278259,287.414062 
	C451.020477,285.574158 442.944885,292.974213 443.677551,302.300781 
	C443.818756,304.098450 444.286560,305.390015 445.735931,306.548828 
	C450.045288,309.994385 452.582520,314.632050 454.229675,320.248230 
M574.919189,237.549652 
	C561.707092,213.080566 541.342224,200.056015 513.428528,199.024811 
	C474.792267,197.597504 441.041656,230.713531 443.161346,268.676208 
	C443.381470,272.618500 444.460388,273.748230 448.440582,273.593903 
	C459.071960,273.181763 469.731262,272.943756 480.364258,273.221039 
	C512.510193,274.059296 544.658813,273.350983 576.803162,273.722748 
	C580.577698,273.766418 581.645752,272.228699 581.708801,268.673523 
	C581.898376,257.994141 579.790710,247.862442 574.919189,237.549652 
z"/>
<path fill="#000000" opacity="1.000000" stroke="none" 
	d="
M653.364624,690.395752 
	C673.177063,692.419006 687.469482,701.938232 696.630432,719.133972 
	C709.445557,743.188782 706.635986,773.580933 689.378418,791.822144 
	C672.946289,809.190979 652.598022,814.090759 629.609558,808.925354 
	C624.359558,807.745605 619.746643,804.971375 615.571777,801.556702 
	C613.912048,800.199219 612.348145,798.701050 610.226196,798.045349 
	C608.460693,799.614807 609.092773,801.568909 609.083984,803.287292 
	C609.015320,816.776001 609.058838,830.265198 609.014893,843.754089 
	C608.988098,851.989929 608.889648,852.259155 600.983215,852.652588 
	C594.005310,852.999817 587.002258,852.841614 580.010437,852.913391 
	C576.020691,852.954346 574.583801,851.071350 574.591980,847.032776 
	C574.692505,797.405762 574.690796,747.778381 574.602905,698.151367 
	C574.595642,694.053101 576.033447,692.487122 580.141785,692.598145 
	C587.630249,692.800598 595.140259,692.910339 602.617981,692.560791 
	C607.535828,692.330872 609.305603,694.329285 609.029053,698.943481 
	C608.900879,701.082520 609.007202,703.235474 609.007202,706.928223 
	C621.982788,694.545593 635.907349,687.969299 653.364624,690.395752 
M608.427612,755.900757 
	C609.873779,763.822144 612.972351,770.878479 619.491638,775.951416 
	C630.569275,784.571655 645.594788,785.061646 657.267029,777.320801 
	C668.476685,769.886902 673.783264,755.610718 670.285156,742.298828 
	C665.767090,725.105286 646.438232,714.800598 629.726624,720.676025 
	C614.774048,725.933105 607.967163,736.878540 608.427612,755.900757 
z"/>
<path fill="#000000" opacity="1.000000" stroke="none" 
	d="
M202.400909,775.546021 
	C214.033371,779.384277 225.465698,782.121826 237.453094,781.654175 
	C241.677628,781.489319 245.675323,780.461365 249.375549,778.421997 
	C254.661774,775.508667 257.396759,770.751953 257.479248,764.951233 
	C257.560150,759.262878 253.968460,755.445679 249.123688,752.851379 
	C243.202881,749.680908 236.664963,748.259766 230.304153,746.341614 
	C218.184799,742.686951 206.077133,739.001709 195.531357,731.630127 
	C182.954773,722.839050 178.708389,710.110962 179.264526,695.562622 
	C180.096527,673.797913 192.300110,660.387329 212.378662,654.257507 
	C232.873825,648.000610 253.367874,648.962280 273.402069,657.091797 
	C280.424042,659.941223 284.703278,663.970947 283.491455,672.450378 
	C282.721436,677.838074 283.367828,683.425110 283.329254,688.922302 
	C283.316650,690.714722 283.711639,692.804077 281.695923,693.818787 
	C279.875305,694.735107 278.615265,693.171448 277.231445,692.333435 
	C264.260284,684.478333 250.114563,680.750000 235.028549,680.362061 
	C231.489944,680.271057 228.089920,681.106323 224.780289,682.253540 
	C219.432281,684.107300 216.216278,687.865601 215.396133,693.477478 
	C214.520309,699.470337 216.428116,704.265930 221.757187,707.533691 
	C228.234451,711.505249 235.549454,713.283203 242.654205,715.585144 
	C251.354431,718.404114 260.194641,720.814941 268.463013,724.829590 
	C283.253876,732.011108 291.485748,743.866150 292.157990,760.223755 
	C292.840637,776.835510 287.300507,790.894226 272.969818,800.659851 
	C263.309998,807.242615 252.389343,810.129150 241.059464,811.077881 
	C223.218613,812.572021 205.913269,810.047058 189.495529,802.370056 
	C183.903107,799.755005 180.880966,796.298767 181.532700,789.679871 
	C182.101318,783.905151 181.584442,778.028870 181.690216,772.200134 
	C181.724014,770.336975 180.854874,767.987793 183.272629,766.882996 
	C185.268494,765.970947 186.757996,767.407898 188.259232,768.410828 
	C192.575180,771.293945 197.218338,773.524292 202.400909,775.546021 
z"/>
<path fill="#000000" opacity="1.000000" stroke="none" 
	d="
M339.349762,761.000488 
	C339.347137,775.163696 339.227631,788.828613 339.405670,802.489563 
	C339.466583,807.163147 337.516846,808.592651 333.091400,808.433960 
	C326.102173,808.183350 319.097168,808.389893 312.098969,808.366333 
	C305.561523,808.344360 304.946777,807.773560 304.936890,801.233215 
	C304.903595,779.238708 304.919617,757.244263 304.914917,735.249756 
	C304.909576,710.089233 304.884857,684.928772 304.905975,659.768250 
	C304.912598,651.866089 305.186951,651.639832 313.058533,651.633179 
	C319.890198,651.627380 326.727112,651.806763 333.551636,651.588928 
	C337.918671,651.449646 339.440125,653.234497 339.397583,657.494080 
	C339.254517,671.822510 339.328644,686.153320 339.376678,700.483032 
	C339.381409,701.902222 338.860199,703.467468 339.974213,704.758118 
	C341.403839,704.754272 342.087311,703.658020 342.695953,702.787537 
	C354.094849,686.484192 387.552216,687.347534 401.353668,698.029602 
	C411.995605,706.266113 416.890167,717.526367 418.193451,730.272888 
	C420.654541,754.342590 418.805939,778.531738 419.274750,802.664185 
	C419.349518,806.513306 417.868774,808.523987 413.667999,808.417969 
	C406.507721,808.237244 399.339203,808.410217 392.174561,808.365845 
	C386.491669,808.330627 385.707642,807.522339 385.694763,801.513794 
	C385.655884,783.351624 385.613861,765.188965 385.711151,747.027283 
	C385.731018,743.314392 385.215698,739.703613 384.374390,736.164612 
	C381.852539,725.555969 372.888306,718.968872 361.924286,719.416443 
	C351.186432,719.854797 342.408569,727.389221 340.314575,737.598328 
	C338.753479,745.209534 339.623016,752.866638 339.349762,761.000488 
z"/>
<path fill="#000000" opacity="1.000000" stroke="none" 
	d="
M534.976746,700.940063 
	C552.578796,713.726196 561.505737,731.135315 560.960815,752.099365 
	C560.173035,782.408020 539.900818,804.919739 510.060089,810.127380 
	C483.176941,814.818848 459.823517,807.684753 443.857635,784.420715 
	C419.770020,749.322449 437.972443,697.880371 484.597076,690.587891 
	C502.544159,687.780762 519.358765,690.588135 534.976746,700.940063 
M521.651672,731.906555 
	C520.738464,730.720154 519.898132,729.468262 518.900940,728.357178 
	C505.279755,713.180481 480.266876,715.522705 471.466064,733.066284 
	C466.852295,742.263367 466.006653,752.060608 469.110138,762.124878 
	C473.149017,775.222534 483.637817,783.028198 497.436920,782.841736 
	C511.097748,782.657227 522.401001,773.997925 525.532654,760.958130 
	C527.897217,751.112488 527.395386,741.488342 521.651672,731.906555 
z"/>
<path fill="#000000" opacity="1.000000" stroke="none" 
	d="
M780.904785,682.064087 
	C781.041016,677.927979 781.225037,674.268311 781.291443,670.606506 
	C781.349670,667.395386 782.582886,665.741211 786.102905,665.803528 
	C793.929871,665.942139 801.762878,665.898743 809.590637,665.767517 
	C813.279419,665.705688 814.624268,667.296997 814.495300,670.906677 
	C814.305176,676.226929 814.658447,681.571350 814.358032,686.881531 
	C814.117859,691.127991 815.359680,692.933472 819.920410,692.704773 
	C826.567078,692.371582 833.247070,692.764832 839.905518,692.581421 
	C843.678894,692.477539 845.459778,693.713318 845.316162,697.712708 
	C845.124939,703.036560 845.093750,708.381409 845.342529,713.700989 
	C845.547119,718.075134 843.510986,719.779968 839.451721,719.763611 
	C833.458313,719.739563 827.462219,719.816162 821.472168,719.661682 
	C815.518616,719.508118 814.241333,720.406555 814.463562,726.374451 
	C815.002014,740.831116 813.654541,755.318420 815.281555,769.755493 
	C816.149292,777.455017 820.237366,781.472839 827.950867,781.708740 
	C831.762268,781.825317 835.569641,781.915222 839.353394,780.878113 
	C843.104248,779.850098 845.483887,780.906311 845.326904,785.485474 
	C845.132874,791.142883 845.234680,796.812561 845.299561,802.475891 
	C845.334839,805.560974 844.018372,807.452820 841.044128,808.398987 
	C828.513245,812.385620 815.849731,813.123230 803.280396,809.079102 
	C790.160828,804.857971 782.345886,792.702881 781.607239,777.382446 
	C780.788513,760.401794 780.930298,743.418884 780.843628,726.433838 
	C780.810974,720.039429 780.424622,719.314697 774.120544,719.535522 
	C769.102051,719.711182 767.170959,718.090515 767.570557,712.988525 
	C767.946716,708.186951 767.924072,703.312317 767.570129,698.507141 
	C767.218567,693.734680 769.237610,692.105408 773.675415,692.637268 
	C774.167725,692.696289 774.682617,692.577271 775.172363,692.645752 
	C779.521362,693.254211 781.383911,691.411743 780.903503,687.034546 
	C780.741028,685.553955 780.893127,684.038879 780.904785,682.064087 
z"/>
<path fill="#000000" opacity="1.000000" stroke="none" 
	d="
M720.652466,766.999878 
	C720.654541,744.018433 720.645874,721.536926 720.666687,699.055481 
	C720.672424,692.799438 720.825867,692.672363 727.166626,692.658508 
	C734.327332,692.642883 741.489624,692.748169 748.648071,692.622375 
	C752.037231,692.562927 753.389832,693.841736 753.382629,697.312622 
	C753.308899,732.783142 753.313904,768.254028 753.370972,803.724609 
	C753.376526,807.182617 751.942322,808.451599 748.568298,808.398010 
	C740.909912,808.276062 733.245789,808.252197 725.588989,808.418030 
	C721.953064,808.496765 720.562500,807.155029 720.606323,803.469666 
	C720.748962,791.481323 720.655457,779.490051 720.652466,766.999878 
z"/>
<path fill="#000000" opacity="1.000000" stroke="none" 
	d="
M719.435547,671.997131 
	C717.614014,664.160522 718.296875,657.228516 724.474121,651.998901 
	C730.192383,647.157898 736.808838,645.744263 744.023071,648.314514 
	C752.279480,651.256042 756.527649,657.672302 756.332520,666.777344 
	C756.169983,674.360657 751.195618,680.883850 743.897461,683.084229 
	C735.033875,685.756653 726.141785,682.983521 721.300720,675.956604 
	C720.559814,674.881165 720.132690,673.589478 719.435547,671.997131 
z"/>
</svg>